<svg width="1012" height="1009" viewBox="0 0 1012 1009" fill="none" xmlns="http://www.w3.org/2000/svg">
<g clip-path="url(#clip0_113_19)">
<rect y="9" width="1000" height="1000" rx="100" fill="url(#paint0_linear_113_19)"/>
</g>
<g clip-path="url(#clip1_113_19)">
<path d="M475.866 513.971L435.311 549.063C435.31 549.064 435.308 549.065 435.307 549.067M475.866 513.971L422.422 549.528C424.295 549.814 426.203 549.684 428.026 549.147C429.848 548.609 431.545 547.676 433.006 546.407L435.307 549.067M475.866 513.971L511.915 611.438L511.917 611.443C512.903 614.097 514.486 616.482 516.549 618.386C518.612 620.291 521.093 621.657 523.787 622.353C526.481 623.048 529.292 623.048 531.979 622.356C534.664 621.665 537.133 620.306 539.185 618.414L539.187 618.412L593.285 568.456C627.943 569.443 662.623 569.049 697.252 567.275L697.323 567.271L697.393 567.264C701.855 566.854 705.941 564.637 708.819 561.151C711.692 557.67 713.159 553.176 712.946 548.611C712.733 544.044 710.852 539.697 707.637 536.5C704.416 533.298 700.111 531.511 695.625 531.567L695.556 531.568L695.487 531.571C666.058 533.11 629.546 533.823 587.529 532.472C583.162 532.327 578.944 533.933 575.711 536.905L575.705 536.911L534.934 574.572L499.172 477.871L499.169 477.864C498.198 475.256 496.65 472.908 494.637 471.021C492.623 469.133 490.202 467.763 487.566 467.036L475.866 513.971ZM435.307 549.067C433.48 550.652 431.348 551.828 429.042 552.508C426.734 553.188 424.309 553.355 421.927 552.991M435.307 549.067L421.927 552.991M421.927 552.991C379.304 546.502 342.574 538.88 313.024 531.746L312.958 531.73L312.893 531.711C308.566 530.488 304.907 527.555 302.645 523.594C300.387 519.638 299.681 514.944 300.641 510.487C301.601 506.028 304.168 502.092 307.859 499.535C311.557 496.972 316.09 496.002 320.499 496.88L320.565 496.893L320.63 496.909C353.291 504.727 386.216 511.252 419.338 516.471M421.927 552.991L474.578 473.221L472.271 470.567M419.338 516.471L418.123 517.525L420.426 520.183L420.933 516.722C420.401 516.639 419.869 516.555 419.338 516.471ZM419.338 516.471L472.271 470.567M472.271 470.567L472.274 470.563C472.273 470.564 472.272 470.565 472.271 470.567ZM383.345 386.46L383.345 386.46C471.932 403.529 561.831 411.842 651.876 411.29L651.877 411.29C720.664 410.861 781.192 472.36 775.191 544.845L769.703 611.146L769.7 611.177L769.698 611.207C768.921 623.13 764.159 634.348 756.299 642.864C748.446 651.372 738.024 656.619 726.912 657.726C680.561 661.898 598.782 665.796 496.299 656.32C393.82 646.844 313.928 627.94 268.957 615.38C258.196 612.251 248.796 605.171 242.461 595.351C236.119 585.523 233.273 573.601 234.466 561.717L234.469 561.686L234.472 561.656L239.96 495.354C245.96 422.869 315.673 373.414 383.345 386.46ZM381.568 764.713C382.126 757.98 385.19 751.792 390.033 747.497C394.869 743.208 401.074 741.16 407.276 741.733L569.937 756.774C576.139 757.347 581.913 760.504 585.971 765.615C590.035 770.733 592.036 777.389 591.479 784.123C590.921 790.856 587.857 797.044 583.014 801.339C578.178 805.628 571.973 807.676 565.771 807.103L403.11 792.062C396.908 791.488 391.133 788.332 387.075 783.221C383.012 778.103 381.011 771.447 381.568 764.713Z" fill="black" stroke="black" stroke-width="7"/>
<path d="M564.077 167.547C574.936 162.195 583.82 153.207 589.353 141.974C594.885 130.742 596.756 117.895 594.675 105.424C592.595 92.9535 586.679 81.557 577.845 73.002C569.012 64.4471 557.754 59.2118 545.819 58.1081C533.883 57.0045 521.936 60.0942 511.831 66.898C501.726 73.7017 494.028 83.8394 489.93 95.7387C485.832 107.638 485.564 120.634 489.167 132.711C492.77 144.787 500.042 155.27 509.857 162.534L504.477 227.517L396.037 217.49C331.327 211.507 267.018 232.937 217.258 277.066C167.497 321.195 136.362 384.409 130.7 452.801L128.328 481.453C113.948 480.124 99.6575 484.886 88.5996 494.692C77.5418 504.499 70.6228 518.546 69.3647 533.744L59.8774 648.354C58.6193 663.552 63.1252 678.656 72.4038 690.343C81.6825 702.03 94.9738 709.343 109.354 710.672L104.61 767.977C102.094 798.373 111.106 828.581 129.663 851.955C148.22 875.329 174.803 889.954 203.563 892.614L745.764 942.749C774.525 945.408 803.106 935.884 825.222 916.271C847.338 896.658 861.176 868.563 863.692 838.166L868.436 780.862C882.816 782.191 897.107 777.429 908.164 767.622C919.222 757.816 926.141 743.768 927.399 728.57L936.887 613.961C938.145 598.763 933.639 583.659 924.36 571.972C915.082 560.285 901.79 552.972 887.41 551.642L889.782 522.99C895.443 454.598 875.167 386.631 833.413 334.039C791.659 281.448 731.848 248.541 667.138 242.558L558.698 232.531L564.077 167.547ZM835.562 517.977L809.472 833.153C808.214 848.351 801.295 862.398 790.237 872.205C779.179 882.011 764.888 886.774 750.508 885.444L208.307 835.309C193.927 833.979 180.635 826.667 171.357 814.98C162.078 803.293 157.572 788.189 158.83 772.991L184.92 457.814C189.324 404.621 213.54 355.455 252.243 321.132C290.945 286.809 340.963 270.141 391.294 274.795L662.394 299.862C712.724 304.516 759.244 330.111 791.719 371.015C824.195 411.919 839.965 464.783 835.562 517.977Z" fill="black"/>
</g>
<defs>
<linearGradient id="paint0_linear_113_19" x1="-10.5" y1="62" x2="1020" y2="1020.5" gradientUnits="userSpaceOnUse">
<stop stop-color="#0D9488"/>
<stop offset="1" stop-color="#C026D3"/>
</linearGradient>
<clipPath id="clip0_113_19">
<rect y="9" width="1000" height="1000" rx="100" fill="white"/>
</clipPath>
<clipPath id="clip1_113_19">
<rect width="900" height="900" fill="white" transform="translate(114.44) rotate(5)"/>
</clipPath>
</defs>
</svg>
