<svg width="1747" height="1821" viewBox="0 0 1747 1821" fill="none" xmlns="http://www.w3.org/2000/svg">
<path d="M810.606 956.468L732.457 1026.87C732.456 1026.87 732.456 1026.87 732.456 1026.87C729.327 1029.7 725.671 1031.8 721.712 1033.02C717.751 1034.23 713.589 1034.53 709.496 1033.88C709.496 1033.88 709.495 1033.88 709.494 1033.88L710.057 1029.92C630.928 1017.38 562.751 1002.65 507.921 988.87L810.606 956.468ZM810.606 956.468L878.955 1148.87L878.957 1148.88C880.644 1153.6 883.352 1157.85 886.886 1161.25C890.421 1164.65 894.677 1167.09 899.303 1168.33C903.93 1169.57 908.759 1169.57 913.37 1168.34C917.978 1167.1 922.209 1164.68 925.722 1161.3L925.724 1161.3L1027.15 1063.79L810.606 956.468ZM830.666 872.775C826.12 871.467 821.359 871.366 816.783 872.473C812.211 873.579 807.981 875.852 804.426 879.07L829.623 876.624M830.666 872.775L829.623 876.624M830.666 872.775C830.665 872.775 830.664 872.774 830.663 872.774L829.623 876.624M830.666 872.775C835.192 874.074 839.345 876.523 842.796 879.89C846.245 883.256 848.893 887.44 850.554 892.085L850.557 892.093L918.418 1083.13M829.623 876.624C833.483 877.732 837.05 879.827 840.034 882.739C843.019 885.651 845.336 889.298 846.797 893.382L915.274 1086.16L918.418 1083.13M918.418 1083.13L996.983 1007.57L996.99 1007.57C1002.53 1002.27 1009.76 999.395 1017.27 999.656M918.418 1083.13L919.899 1087.3L1017.27 999.656M1017.27 999.656C1017.27 999.656 1017.27 999.656 1017.27 999.656L1017.19 1003.66L1017.26 999.656C1017.26 999.656 1017.26 999.656 1017.27 999.656ZM637.778 711.216L637.779 711.216C802.499 744.26 969.658 760.352 1137.09 759.284L1137.09 759.284C1266.37 758.445 1380.43 878.784 1369.11 1021.09L1358.9 1149.56L1358.89 1149.59L1358.89 1149.63C1357.4 1173.39 1348.29 1195.75 1333.24 1212.72C1318.2 1229.69 1298.25 1240.14 1276.97 1242.35C1190.6 1250.44 1038.24 1258 847.332 1239.62C656.425 1221.25 507.59 1184.58 423.789 1160.21C403.187 1153.98 385.184 1139.87 373.051 1120.29C360.91 1100.69 355.462 1076.93 357.746 1053.25L357.749 1053.22L357.752 1053.18L367.967 924.712C379.282 782.405 510.592 685.687 637.778 711.216ZM631.518 1446.64C632.614 1432.86 638.638 1420.19 648.167 1411.39C657.683 1402.6 669.891 1398.41 682.089 1399.58L984.821 1428.73C997.019 1429.9 1008.38 1436.36 1016.36 1446.84C1024.36 1457.32 1028.29 1470.95 1027.2 1484.73C1026.1 1498.51 1020.08 1511.19 1010.55 1519.98C1001.03 1528.77 988.825 1532.96 976.627 1531.79L673.894 1502.65C661.696 1501.47 650.336 1495.01 642.351 1484.54C634.355 1474.05 630.422 1460.42 631.518 1446.64Z" fill="url(#paint0_linear_114_19)" stroke="black" stroke-width="8"/>
<path d="M971.364 285.307L968.936 286.553L968.718 289.293L958.707 415.21L958.31 420.194L963.287 420.674L1165.11 440.103C1284.06 451.554 1394.12 514.54 1471.02 615.38C1547.93 716.237 1585.34 846.682 1574.9 978.024L1570.48 1033.54L1570.09 1038.53L1575.06 1039.01C1600.35 1041.44 1623.82 1054.83 1640.28 1076.41C1656.75 1098.01 1664.81 1126.02 1662.57 1154.29L1644.91 1376.37C1642.66 1404.64 1630.3 1430.69 1610.67 1448.81C1591.06 1466.92 1565.83 1475.62 1540.54 1473.19L1535.57 1472.71L1535.17 1477.69L1526.34 1588.73C1521.75 1646.45 1496.51 1699.72 1456.31 1736.84C1416.11 1773.95 1364.28 1791.88 1312.24 1786.87L303.128 1689.73C251.081 1684.72 202.868 1657.15 169.142 1612.93C135.403 1568.68 118.955 1511.41 123.545 1453.69L132.373 1342.65L132.769 1337.66L127.792 1337.18C102.509 1334.75 79.0321 1321.36 62.5749 1299.78C46.1047 1278.18 38.0432 1250.17 40.291 1221.9L57.9481 999.821C60.1959 971.55 72.5555 945.504 92.1839 927.381C111.797 909.272 137.03 900.569 162.314 903.003L167.291 903.482L167.687 898.498L172.102 842.979C182.545 711.636 239.974 590.322 331.633 505.693C423.277 421.078 541.6 380.078 660.555 391.53L862.377 410.959L867.353 411.438L867.75 406.454L877.761 280.537L877.979 277.796L875.785 276.106C858.436 262.739 845.498 243.379 839.074 220.961C832.65 198.541 833.126 174.39 840.44 152.278C847.753 130.168 861.466 111.414 879.364 98.8675C897.252 86.328 918.325 80.6796 939.318 82.7005C960.31 84.7215 980.172 94.3105 995.809 110.077C1011.46 125.853 1022 146.943 1025.71 170.114C1029.43 193.287 1026.08 217.163 1016.22 238.015C1006.36 258.864 990.558 275.458 971.364 285.307ZM1435.38 1579.97L1483.94 969.268C1492.23 865.018 1462.55 761.331 1401.31 681.025C1340.06 600.702 1252.22 550.332 1157.07 541.172L652.519 492.599C557.369 483.439 462.915 516.26 389.917 583.659C316.935 651.044 271.347 747.485 263.058 851.735L214.501 1462.44C212.066 1493.07 220.777 1523.59 238.844 1547.28C256.924 1570.99 282.922 1585.94 311.164 1588.66L1320.27 1685.8C1348.51 1688.52 1376.48 1678.77 1398.02 1658.87C1419.55 1638.99 1432.95 1610.6 1435.38 1579.97Z" fill="white" stroke="url(#paint1_linear_114_19)" stroke-width="10"/>
<defs>
<linearGradient id="paint0_linear_114_19" x1="887.838" y1="730.176" x2="811.808" y2="1519.94" gradientUnits="userSpaceOnUse">
<stop stop-color="#C026D3"/>
<stop offset="1" stop-color="#0D9488"/>
</linearGradient>
<linearGradient id="paint1_linear_114_19" x1="939.714" y1="77.7163" x2="779.629" y2="1740.62" gradientUnits="userSpaceOnUse">
<stop stop-color="#9333EA"/>
<stop offset="1" stop-color="#0D9488"/>
</linearGradient>
</defs>
</svg>
