<svg width="1031" height="1030" viewBox="0 0 1031 1030" fill="none" xmlns="http://www.w3.org/2000/svg">
<g clip-path="url(#clip0_113_19)">
<rect x="-0.000488281" y="29" width="1000" height="1000" rx="50" fill="white"/>
</g>
<g clip-path="url(#clip1_113_19)">
<path d="M367.676 407.739L367.676 407.739C461.172 425.754 556.052 434.527 651.088 433.945L651.088 433.945C723.808 433.492 787.794 498.502 781.45 575.132L775.657 645.117L775.655 645.147L775.653 645.178C774.829 657.806 769.786 669.69 761.458 678.712C753.138 687.726 742.094 693.287 730.316 694.46C681.381 698.864 595.046 702.98 486.855 692.976C378.667 682.973 294.325 663.015 246.847 649.755C235.441 646.438 225.479 638.935 218.767 628.531C212.049 618.118 209.034 605.489 210.298 592.902L210.301 592.871L210.304 592.841L216.097 522.856C222.44 446.226 296.135 393.947 367.676 407.739ZM422.367 579.419L465.387 542.194L503.536 645.34L503.538 645.346C504.568 648.119 506.222 650.61 508.376 652.598C510.531 654.588 513.121 656.014 515.932 656.739C518.744 657.465 521.678 657.465 524.482 656.743C527.285 656.021 529.863 654.603 532.007 652.626L532.009 652.625L589.17 599.84C625.774 600.884 662.402 600.469 698.976 598.595L699.047 598.592L699.117 598.585C703.774 598.157 708.04 595.843 711.047 592.201C714.049 588.565 715.582 583.868 715.359 579.097C715.136 574.323 713.171 569.782 709.814 566.444C706.45 563.099 701.956 561.235 697.275 561.293L697.205 561.294L697.136 561.297C666.068 562.921 627.524 563.674 583.169 562.249C578.61 562.096 574.205 563.771 570.826 566.877L570.82 566.883L527.571 606.833L489.72 504.486L489.718 504.478C488.703 501.753 487.086 499.301 484.984 497.33C482.88 495.359 480.352 493.928 477.6 493.169C474.839 492.407 471.946 492.347 469.164 492.994C466.383 493.64 463.805 494.97 461.635 496.857L405.694 545.371C370.698 539.858 335.908 532.965 301.399 524.704L301.333 524.689L301.267 524.676C296.667 523.759 291.935 524.771 288.073 527.447C284.218 530.118 281.536 534.23 280.533 538.89C279.53 543.548 280.268 548.455 282.627 552.587C284.989 556.725 288.81 559.787 293.326 561.064L293.392 561.082L293.457 561.098C324.644 568.627 363.409 576.672 408.394 583.52C410.881 583.9 413.411 583.727 415.821 583.016C418.23 582.306 420.458 581.076 422.367 579.419ZM365.572 807.179C366.165 800.024 369.421 793.446 374.571 788.879C379.714 784.317 386.316 782.137 392.918 782.747L564.615 798.623C571.217 799.234 577.361 802.593 581.676 808.029C585.998 813.472 588.124 820.547 587.531 827.703C586.939 834.859 583.683 841.437 578.533 846.004C573.389 850.565 566.787 852.746 560.185 852.135L388.488 836.259C381.886 835.649 375.743 832.289 371.427 826.854C367.106 821.411 364.98 814.335 365.572 807.179Z" fill="#9333EA" stroke="black" stroke-width="7"/>
<path d="M558.414 176.855C569.876 171.206 579.254 161.718 585.094 149.862C590.934 138.006 592.909 124.444 590.713 111.281C588.516 98.1176 582.272 86.0879 572.948 77.0577C563.623 68.0275 551.74 62.5013 539.142 61.3364C526.543 60.1714 513.932 63.4327 503.266 70.6145C492.6 77.7963 484.474 88.4972 480.148 101.057C475.823 113.618 475.539 127.336 479.342 140.083C483.145 152.831 490.822 163.897 501.182 171.563L495.504 240.157L381.039 229.573C312.734 223.257 244.852 245.878 192.327 292.459C139.802 339.04 106.937 405.765 100.961 477.956L98.4575 508.201C83.2785 506.797 68.1937 511.824 56.5215 522.175C44.8493 532.527 37.5459 547.354 36.2179 563.397L26.2036 684.374C24.8756 700.416 29.6318 716.359 39.4259 728.695C49.2201 741.032 63.2498 748.751 78.4288 750.154L73.4216 810.642C70.7656 842.728 80.278 874.614 99.8663 899.286C119.455 923.958 147.514 939.396 177.872 942.203L750.195 995.124C780.553 997.931 810.723 987.877 834.067 967.175C857.412 946.472 872.019 916.816 874.675 884.731L879.682 824.243C894.861 825.646 909.945 820.619 921.618 810.268C933.29 799.917 940.593 785.089 941.921 769.046L951.936 648.07C953.264 632.027 948.507 616.084 938.713 603.748C928.919 591.412 914.889 583.693 899.71 582.289L902.214 552.045C908.19 479.854 886.787 408.11 842.713 352.597C798.64 297.084 735.506 262.349 667.201 256.033L552.736 245.449L558.414 176.855ZM844.982 546.753L817.442 879.439C816.114 895.482 808.811 910.309 797.139 920.661C785.466 931.012 770.382 936.039 755.203 934.635L182.879 881.715C167.7 880.311 153.67 872.592 143.876 860.256C134.082 847.92 129.326 831.977 130.654 815.935L158.193 483.248C162.841 427.1 188.403 375.202 229.256 338.972C270.109 302.743 322.905 285.149 376.032 290.061L662.194 316.522C715.32 321.434 764.424 348.45 798.703 391.627C832.983 434.804 849.63 490.604 844.982 546.753Z" fill="black"/>
</g>
<defs>
<clipPath id="clip0_113_19">
<rect x="-0.000488281" y="29" width="1000" height="1000" rx="50" fill="white"/>
</clipPath>
<clipPath id="clip1_113_19">
<rect width="950" height="950" fill="white" transform="translate(83.7979) rotate(5)"/>
</clipPath>
</defs>
</svg>
