<svg width="1000" height="1000" viewBox="0 0 1000 1000" fill="none" xmlns="http://www.w3.org/2000/svg">
<g clip-path="url(#clip0_99_48)">
<rect width="1000" height="1000" rx="50" fill="#003049"/>
<path d="M224.009 315.789L226.357 323.027C234.079 351.172 233.07 378.832 225.502 401.252C217.285 425.596 201.817 442.744 182.278 449.586C162.778 456.415 140.606 452.52 119.991 438.454C99.3638 424.378 81.1895 400.56 71.2737 369.994C61.3472 339.396 61.7977 308.874 69.9518 284.528C78.112 260.163 93.4962 243.029 113.005 236.197C132.505 229.369 154.677 233.263 175.292 247.33C195.919 261.405 214.093 285.224 224.009 315.789ZM115.233 684.074L115.235 684.071C263.387 444.057 441.346 413.571 509.29 426.393C577.234 439.215 729.237 531.968 768.832 807.413L768.832 807.417C771.322 824.705 770.322 842.8 766.559 860.671L765.933 863.641C757.482 903.768 718.927 929.675 680.343 922.394C660.6 918.668 641.565 912.532 623.569 904.056L623.555 904.049L623.54 904.042L471.658 832.908L471.648 832.903L471.637 832.898C442.963 819.523 411.286 813.545 379.385 815.489L379.374 815.489L379.362 815.49L210.274 826.054L210.258 826.055L210.241 826.056C190.188 827.352 170.122 826.109 150.379 822.383C111.795 815.102 86.6828 777.18 95.1337 737.053L95.7594 734.083C99.523 716.212 105.93 699.137 115.233 684.074ZM494.866 160.041C499.205 199.491 491.134 236.233 475.283 263.678C459.423 291.138 436.456 308.38 410.774 311.869C385.143 315.351 359.205 304.765 337.918 282.402C316.627 260.035 300.818 226.547 296.479 187.098C292.14 147.648 300.211 110.906 316.062 83.4615C331.922 56.0017 354.889 38.7591 380.571 35.27C406.202 31.7879 432.14 42.3743 453.426 64.7369C474.718 87.1046 490.527 120.592 494.866 160.041ZM801.906 566.518C786.633 553.106 779.294 531.654 781.567 506.188C783.838 480.745 795.735 452.41 817.363 427.792C839.006 403.155 865.454 387.752 890.185 382.237C914.893 376.727 936.902 381.167 952.146 394.553C967.42 407.965 974.758 429.416 972.486 454.883C970.215 480.326 958.317 508.661 936.69 533.279C915.046 557.915 888.599 573.319 863.868 578.834C839.159 584.344 817.15 579.904 801.906 566.518ZM632.079 353.632C609.774 341.087 595.548 316.826 592.025 285.708C588.503 254.608 595.933 217.745 615.922 182.886C635.911 148.028 664.078 122.839 692.803 109.91C721.521 96.984 749.765 96.6224 772.025 109.142C794.331 121.687 808.557 145.949 812.08 177.066C815.602 208.166 808.171 245.03 788.182 279.888C768.194 314.747 740.027 339.935 711.302 352.864C682.584 365.791 654.34 366.152 632.079 353.632Z" fill="#F77F00" stroke="#F77F00" stroke-width="30"/>
</g>
<defs>
<clipPath id="clip0_99_48">
<rect width="1000" height="1000" rx="50" fill="white"/>
</clipPath>
</defs>
</svg>
