<?xml version="1.0" encoding="utf-8" ?>
<svg xmlns="http://www.w3.org/2000/svg" xmlns:xlink="http://www.w3.org/1999/xlink" width="512" height="512">
	<path fill="#F4B866" transform="scale(0.666667 0.666667)" d="M-0 -0L768 0L768 768L-0 768L0 -0Z"/>
	<path fill="#02071A" transform="scale(0.666667 0.666667)" d="M530.598 295.749C534.167 297.079 537.783 298.737 540.309 301.688C543.028 304.863 543.926 309.734 543.597 313.805C543.226 318.394 540.971 322.309 537.44 325.195C530.637 330.758 520.76 330.257 512.476 330.25C508.618 330.247 504.446 330.373 500.622 329.869C497.508 329.458 494.739 327.81 492.853 325.293C489.302 320.553 489.449 311.872 490.427 306.293C492.605 293.864 506.545 285.258 516.234 278.528L464.816 260.896L456.077 265.613C454.935 266.236 453.148 266.884 452.348 267.877C452.9 274.797 452.857 282.351 454.4 289.122C457.136 301.129 462.335 312.86 467.525 323.979L476.09 342.122C476.924 343.753 477.784 346.458 478.864 347.844C479.502 348.663 483.095 349.453 484.125 349.782L499.172 354.92C520.568 362.65 541.784 371.95 562.134 382.107C565.456 383.765 571.876 386.1 574.039 389.091C575.554 391.187 575.684 394.981 575.244 397.5C574.907 399.423 573.538 400.89 571.966 401.953C568.093 404.57 562.981 406.05 558.505 407.261C540.218 412.212 519.427 412.908 500.625 410.601C493.441 409.719 486.546 407.8 479.468 406.397C483.476 414.214 486.663 421.963 488.169 430.688C489.903 440.732 489.373 451.194 489.414 461.342L489.509 470.239C489.522 471.065 489.329 472.784 489.565 473.53C489.772 474.188 491.439 475.743 491.916 476.304L498.371 484.174C507.099 495.842 514.933 510.857 517.811 525.188C519.043 531.327 519.361 537.887 519.895 544.131L541.228 544.211C541.472 546.986 542.026 552.617 541.144 555.188C540.495 557.079 536.388 556.449 534.675 556.445L450.749 555.961L439.125 555.793C437.331 555.738 434.094 554.991 432.598 555.955L395.451 579.365C391.509 581.939 387.669 585.211 383.487 587.325C383.471 587.333 382.394 587.881 382.362 587.877C382.148 587.846 380.82 586.663 380.55 586.459L373.223 581.017L342.744 559.508C341.451 558.647 338.652 556.151 337.351 555.853C335.644 555.463 332.215 556.257 330.379 556.331L317.925 556.465L251.589 556.286C242.986 556.176 234.238 556.603 225.661 555.962C225.278 552.198 225.463 548.299 225.587 544.523L247.798 544.269C248.986 539.495 249.248 534.361 250.126 529.5C252.298 517.478 256.569 505.359 262.713 494.772C266.445 488.341 270.688 482.598 275.365 476.846C275.98 476.09 277.495 474.48 277.795 473.56C278.061 472.745 277.934 471.034 277.945 470.152L277.871 461.292C277.763 451.034 277.468 440.624 279.317 430.488C280.802 422.349 283.639 414.803 287.294 407.414L269.717 410.307C261.515 411.297 253.437 411.484 245.186 411.429C231.04 411.336 216.018 409.845 202.601 405.203C199.807 404.236 195.966 402.965 194.01 400.645C193.146 399.621 193.272 395.769 193.339 394.434C193.482 391.586 194.003 390.265 196.274 388.336C198.698 386.276 201.839 384.891 204.69 383.533L216.7 377.953L272.866 354.275L289.147 348.37C289.932 348.062 292.232 347.433 292.697 346.963C293.185 346.471 293.899 344.031 294.212 343.276L300.521 327.039C306.03 312.247 311.454 297.284 318.537 283.155C328.135 264.01 340.795 246.519 356.863 232.266C370.771 219.931 386.084 210.361 403.045 202.829C409.317 200.043 415.733 197.32 422.468 195.881C430.063 194.259 438.155 194.056 445.896 194.559C451.039 194.893 455.829 196.378 460.589 198.302C467.019 200.9 473.21 204.134 479.388 207.276L515.812 226.783L546.833 243.89C551.228 246.415 555.938 248.807 560.082 251.709C561.908 252.988 563.158 254.724 564.695 256.3C566.79 258.446 569.099 260.471 571.049 262.743C575.76 268.23 594.712 300.495 593.898 306.661C593.621 308.76 591.699 309.837 590.117 310.932C586.657 310.322 583.253 308.65 580.004 307.34L568.257 302.947L551.569 297.735L533.381 291.843C529.645 290.288 523.298 288.41 519.41 289.943C514.715 291.794 510.124 295.556 506.438 298.915C504.482 300.697 502.443 302.512 501.151 304.852C501.069 309.381 500.785 314.591 502.08 318.938C503.242 319.761 504.506 319.581 505.903 319.65C506.888 317.318 507.423 314.856 508.122 312.431C508.862 309.859 509.936 307.046 511.582 304.906C513.616 302.261 517.086 300.021 519.714 297.946C520.645 296.806 521.792 296.02 522.969 295.155C524.153 294.701 525.343 294.805 526.588 294.82C527.395 295.013 529.932 295.912 530.598 295.749Z"/>
	<path fill="#9E8E80" transform="scale(0.666667 0.666667)" d="M279.98 486.065C281.237 488.198 279.044 496.956 278.438 499.348C275.395 511.339 270.027 522.633 267.264 534.75C266.423 538.435 266.089 542.217 265.809 545.979L258.356 545.851C259.176 529.476 264.486 513.465 272.245 499.125L279.98 486.065Z"/>
	<path fill="#603632" transform="scale(0.666667 0.666667)" d="M522.969 295.155C524.153 294.701 525.343 294.805 526.588 294.82C526.302 296.121 526 297.151 526.358 298.46L528.183 300.401C531.077 303.202 534.661 306.817 534.774 311.17C534.827 313.204 534.143 315.371 532.694 316.852C529.215 320.408 523.626 319.844 519.056 319.896L507.015 319.829C506.354 319.803 506.589 319.823 505.903 319.65C506.888 317.318 507.423 314.856 508.122 312.431C508.862 309.859 509.936 307.046 511.582 304.906C513.616 302.261 517.086 300.021 519.714 297.946C520.645 296.806 521.792 296.02 522.969 295.155Z"/>
	<path fill="#9C6B5C" transform="scale(0.666667 0.666667)" d="M519.896 311.369C520.857 309.749 522.315 306.292 523.875 305.395L524.813 305.479C525.475 307.055 525.207 308.366 524.545 309.944L524.166 310.795L523.125 310.407C522.07 310.941 521.042 311.138 519.896 311.369Z"/>
	<path fill="#9E8E80" transform="scale(0.666667 0.666667)" d="M519.896 311.369C521.042 311.138 522.07 310.941 523.125 310.407L524.166 310.795L524.059 311.048L523.637 312.092C522.919 313.733 521.535 315.374 519.763 315.938C518.721 316.269 517.908 316.152 516.938 315.668L516.856 314.668L519.896 311.369Z"/>
	<path fill="#9C6B5C" transform="scale(0.666667 0.666667)" d="M519.689 304.062L519.72 304.461C519.895 307.156 519.142 309.301 517.349 311.339C517.009 311.725 517.218 311.581 516.562 311.62C515.523 309.274 516.086 306.602 516.875 304.268C517.5 302.418 517.957 301.265 519.736 300.414L519.689 304.062Z"/>
	<path fill="#2B212D" transform="scale(0.666667 0.666667)" d="M522.969 295.155C524.153 294.701 525.343 294.805 526.588 294.82C526.302 296.121 526 297.151 526.358 298.46L528.183 300.401L527.768 300.52C526.391 300.901 525.198 301.053 523.772 301.063C522.462 302.132 521.197 303.282 519.689 304.062L519.736 300.414L519.714 297.946C520.645 296.806 521.792 296.02 522.969 295.155Z"/>
	<path fill="#12101F" transform="scale(0.666667 0.666667)" d="M522.969 295.155C524.153 294.701 525.343 294.805 526.588 294.82C526.302 296.121 526 297.151 526.358 298.46L524.812 297.803C523.385 297.01 523.344 296.625 522.969 295.155Z"/>
	<path fill="#603632" transform="scale(0.666667 0.666667)" d="M279.98 486.065L280.312 485.02L280.8 485.062L280.835 485.531C281.254 490.377 283.526 495.49 285.454 499.932C291.851 514.673 299.406 527.67 311.973 538.077C315.659 541.128 319.368 543.87 323.606 546.105L265.809 545.979C266.089 542.217 266.423 538.435 267.264 534.75C270.027 522.633 275.395 511.339 278.438 499.348C279.044 496.956 281.237 488.198 279.98 486.065Z"/>
	<path fill="#603632" transform="scale(0.666667 0.666667)" d="M485.908 483.025L494.18 495.107C500.782 505.29 506.312 516.105 508.542 528.131C509.618 533.934 509.813 539.89 509.998 545.777L470.719 545.901L445.942 546.206L445.431 546.25L449.784 543.393C455.491 539.474 461.069 534.8 465.562 529.515C476.445 516.717 482.961 499.398 485.908 483.025Z"/>
	<path fill="#9E8E80" transform="scale(0.666667 0.666667)" d="M313.299 339.956L304.474 344.262L313.306 321.189C317.976 308.793 322.789 296.106 328.989 284.378C340.214 263.147 355.564 244.925 374.589 230.283C381.363 225.07 389.102 220.564 396.648 216.562C411.414 208.733 427.961 201.955 445.034 204.275C450.659 205.04 455.7 207.002 460.875 209.276C478.214 216.896 494.669 226.855 511.34 235.817L536.567 249.417C542.291 252.542 548.291 255.612 553.565 259.461C557.657 262.447 560.797 266.72 563.86 270.708L563.912 271.229C564.029 272.324 564.012 273.243 564.745 274.125L564.562 274.789C560.839 274.971 554.432 268.135 551.399 265.814C549.057 264.022 546.606 262.358 544.076 260.845L480.707 226.215C469.972 220.765 459.181 214.328 447.448 211.296C444.119 210.436 440.73 210.298 437.308 210.283C421.79 210.215 407.261 216.887 394.165 224.718C384.489 230.505 375.238 237.426 367.251 245.392C348.934 263.66 335.594 287.184 325.262 310.729L319.024 326.058C317.288 330.752 315.787 335.588 313.299 339.956Z"/>
	<path fill="#FF8C22" transform="scale(0.666667 0.666667)" d="M373.244 385.657C376.733 385.264 380.466 385.461 383.993 385.432C403.546 385.269 422.673 387.536 441.375 393.388C446.724 395.061 452.054 396.769 456.887 399.664C457.603 401.279 457.806 403.288 458.115 405.032C459.397 412.279 459.264 420.407 456.844 427.383C454.084 435.337 448.449 442.441 440.789 446.121C436.401 448.229 431.494 449.431 426.609 448.761C413.81 447.004 403.757 435.39 391.715 431.075C387.95 430.112 383.93 429.403 380.042 429.937C373.811 430.792 368.894 434.293 363.826 437.73C354.916 443.774 344.405 450.736 333.11 449.408C325.655 448.532 319.249 444.112 314.687 438.335C307.741 429.539 306.303 420.01 307.482 409.125C307.798 406.211 308.511 403.415 309.199 400.572C328.948 391.147 351.57 387.134 373.244 385.657Z"/>
	<path fill="#2B212D" transform="scale(0.666667 0.666667)" d="M411.956 433.669C414.94 432.25 417.87 433.337 420.884 432.567C423.681 431.852 426.545 430.977 429.239 429.932C430.896 429.289 432.144 428.489 433.929 428.066C430.678 431.995 426.606 433.991 421.557 434.477C418.634 434.759 415.741 434.557 412.888 433.89L412.304 433.756L411.956 433.669Z"/>
	<path fill="#02071A" transform="scale(0.666667 0.666667)" d="M379.758 421.601C382.447 421.559 385.735 421.132 388.312 421.892C389.352 422.739 389.859 423.199 390.249 424.5C389.611 425.476 388.788 425.587 387.725 426.022C384.594 426.469 380.317 426.697 377.196 426.188C376.761 425.301 376.758 424.542 377.062 423.566C377.477 422.235 378.606 422.067 379.758 421.601Z"/>
	<defs>
		<linearGradient id="gradient_0" gradientUnits="userSpaceOnUse" x1="386.04477" y1="388.37354" x2="381.60553" y2="437.10699">
			<stop offset="0" stop-color="#000103"/>
			<stop offset="1" stop-color="#02081E"/>
		</linearGradient>
	</defs>
	<path fill="url(#gradient_0)" transform="scale(0.666667 0.666667)" d="M369.805 416.908C369.496 421.849 368.25 426.202 364.33 429.562C359.294 433.879 352.165 435.346 345.705 434.76C340.514 434.289 336.078 432.547 332.749 428.388C329.329 424.116 328.497 417.212 329.238 411.928C330.239 404.803 334.436 398.812 340.133 394.576C344.539 391.3 350.086 390.28 355.451 391.066C362.079 392.037 368.312 396.02 372.186 401.462C374.25 404.362 375.571 407.932 376.012 411.45L390.18 410.926C392.02 404.152 395.916 397.074 402.111 393.353C407.715 389.987 413.598 389.732 419.795 391.403C426.437 393.193 432.394 397.977 435.771 403.957C438.877 409.456 439.472 415.246 437.733 421.287C437 423.831 435.597 426.037 433.929 428.066C432.144 428.489 430.896 429.289 429.239 429.932C426.545 430.977 423.681 431.852 420.884 432.567C417.87 433.337 414.94 432.25 411.956 433.669C407.315 431.854 402.09 429.582 399.496 425.027C398.377 423.063 397.75 420.857 396.548 418.932C396.29 418.518 395.622 417.27 395.259 417.016C395.126 416.923 392.959 417.099 392.684 417.109C388.289 417.265 372.524 418.765 370.004 416.841L369.805 416.908Z"/>
	<path fill="#FAFAFA" transform="scale(0.666667 0.666667)" d="M411.696 397.254C412.95 397.137 414.174 397.098 415.427 397.231C421.475 397.869 425.679 401.928 429.26 406.49C431.368 409.176 433.847 412.857 433.283 416.436C432.73 419.944 430.805 421.711 428.052 423.568C428.005 421.222 428.179 418.556 427.62 416.269C427.538 415.935 427.267 415.201 426.938 415.048C426.699 414.937 425.575 414.993 425.3 414.981C423.495 414.903 420.998 415.2 419.438 414.247C418.648 412.488 419.673 409.867 420.188 408.082C420.25 407.336 420.138 406.556 419.677 405.945C418.757 404.725 417.343 404.062 415.875 403.809C409.58 402.724 403.932 406.408 401.007 411.872C400.027 413.703 399.508 416.016 397.74 417.22C396.77 417.072 396.615 417.088 395.899 416.438C395.79 412.708 397.793 407.286 399.99 404.293C402.992 400.204 406.659 398.039 411.696 397.254Z"/>
	<path fill="#FAFAFA" transform="scale(0.666667 0.666667)" d="M369.805 416.908C369.324 416.788 368.3 416.562 367.986 416.146C367.627 415.67 367.453 413.827 367.316 413.174C367.032 411.825 366.507 410.497 365.7 409.371C363.613 406.46 360.157 405.35 356.76 404.869C353.878 404.46 351.739 404.486 349.325 406.312C348.114 407.929 348.714 412.254 348.757 414.333L343.951 413.761C343.633 414.128 343.603 414.124 343.351 414.636C342.614 416.136 342.258 420.058 342.994 421.624C343.371 422.426 343.443 422.882 343.559 423.75L343.05 424.38C342.462 424.454 341.842 424.529 341.25 424.459C339.465 424.251 337.673 422.72 336.691 421.296C334.944 418.763 334.864 414.787 335.579 411.867C336.657 407.466 340.291 402.908 344.212 400.688C348.147 398.46 354.58 397.625 358.945 399.014C363.053 400.322 366.687 403.17 368.617 407.062C369.967 409.787 370.945 413.898 370.004 416.841L369.805 416.908Z"/>
	<path fill="#FF8C22" transform="scale(0.666667 0.666667)" d="M374.997 336.533C378.309 336.127 381.994 336.29 385.336 336.303C399.567 336.361 414.06 338.545 427.903 341.815C440.413 344.771 452.783 348.95 464.958 353.062L494.636 363.274L526.533 376.688C539.57 382.373 552.586 387.951 564.892 395.13C554.518 399.325 543.699 401.056 532.588 401.753C518.466 402.638 504.232 401.765 490.46 398.402C474.795 394.577 459.693 388.609 444.19 384.171C427.32 379.342 410.725 375.993 393.275 374.294C365.942 372.839 338.804 380.035 313.066 388.623C300.473 392.826 287.54 397.682 274.488 400.127C260.52 402.744 246.678 402.717 232.577 401.391C223.113 400.502 212.199 398.969 203.409 395.304C214.299 388.958 226.073 383.862 237.645 378.886L296.494 356.133C310.999 351.097 325.85 345.763 340.754 342.073C352.038 339.279 363.413 337.453 374.997 336.533Z"/>
	<path fill="#603632" transform="scale(0.666667 0.666667)" d="M313.299 339.956C315.787 335.588 317.288 330.752 319.024 326.058L325.262 310.729C335.594 287.184 348.934 263.66 367.251 245.392C375.238 237.426 384.489 230.505 394.165 224.718C407.261 216.887 421.79 210.215 437.308 210.283C440.73 210.298 444.119 210.436 447.448 211.296C459.181 214.328 469.972 220.765 480.707 226.215L544.076 260.845C546.606 262.358 549.057 264.022 551.399 265.814C554.432 268.135 560.839 274.971 564.562 274.789L564.745 274.125C564.012 273.243 564.029 272.324 563.912 271.229L563.86 270.708C570.215 278.144 576.243 288.58 579.788 297.684C570.342 293.27 560.578 290.678 550.843 287.11L530.812 279.008C528.178 278.059 525.469 277.502 522.784 276.746L522.698 271.934C519.089 269.775 515.194 268.704 511.301 267.217L485.465 257.581L475.513 253.688C473.2 252.694 470.866 251.452 468.469 250.685C467.171 250.27 465.724 250.318 464.41 250.655C461.15 251.494 457.793 253.258 454.713 254.638L442.11 260.355C442.939 269.916 443.095 279.91 444.722 289.336C448.12 309.025 458.876 326.86 467.264 344.74C459.563 341.441 451.652 339.074 443.625 336.72C431.732 333.232 419.522 330.206 407.21 328.673C388.901 326.393 370.239 327.108 352.126 330.584L324.999 337.175C321.148 338.155 317.224 339.322 313.299 339.956Z"/>
	<path fill="#FAFAFA" transform="scale(0.666667 0.666667)" d="M468.752 412.765L468.528 408.051C477.915 418.873 479.462 433.885 479.688 447.666C479.78 453.325 479.79 459.017 479.371 464.665C477.508 489.781 469.103 515.994 449.451 532.76C429.161 550.07 403.632 559.558 382.343 575.426C375.109 569.217 367.012 563.397 358.876 558.429C343.785 549.213 327.852 541.353 314.991 528.919C308.771 522.905 303.877 516.101 299.779 508.495C292.181 494.391 288.842 479.87 287.652 463.953C286.594 449.784 286.701 435.464 291.438 421.946C292.956 417.612 294.714 413.566 297.491 409.874L297.404 422.385C298.057 426.581 299.031 430.396 300.903 434.222C305.795 444.215 313.976 452.797 324.699 456.375C337.565 460.667 350.622 456.6 361.638 449.546C366.418 446.485 371.083 442.722 376.196 440.252C390.732 433.229 406.194 451.776 419.28 456.077C428.6 459.14 438.719 457.719 447.375 453.304C456.125 448.84 463.511 439.055 466.408 429.779C468.178 424.11 468.541 418.677 468.752 412.765Z"/>
	<defs>
		<linearGradient id="gradient_1" gradientUnits="userSpaceOnUse" x1="363.94498" y1="488.19998" x2="360.367" y2="479.09357">
			<stop offset="0" stop-color="#AEADAD"/>
			<stop offset="1" stop-color="#C7CCD3"/>
		</linearGradient>
	</defs>
	<path fill="url(#gradient_1)" transform="scale(0.666667 0.666667)" d="M383.144 469.187C384.446 470.355 384.332 470.855 384.661 472.53C383.061 473.152 381.182 476.893 379.838 478.4C371.428 487.829 358.23 492.115 346.03 493.349C343.637 493.591 341.212 493.609 338.811 493.687C337.806 493.72 336.507 493.914 335.591 493.48L335.21 493.239L334.603 492.974C338.297 491.774 342.52 491.561 346.334 490.631C361.267 486.992 372.402 480.02 383.144 469.187Z"/>
	<path fill="#B3B2B2" transform="scale(0.666667 0.666667)" d="M383.144 469.187L384.188 468.018C384.808 468.348 384.909 468.423 385.347 468.907C390.75 474.886 398.243 481.21 405.374 484.982C413.627 489.348 424.563 492.148 433.875 492.754L438.061 492.802C437.424 493.116 437.563 493.147 437.002 493.168L424.115 493.735C412.509 493.283 400.586 489.404 392.137 481.137C389.425 478.484 387.238 475.323 384.661 472.53C384.332 470.855 384.446 470.355 383.144 469.187Z"/>
	<defs>
		<linearGradient id="gradient_2" gradientUnits="userSpaceOnUse" x1="386.0163" y1="499.60925" x2="377.48761" y2="454.22379">
			<stop offset="0" stop-color="black"/>
			<stop offset="1" stop-color="#02061D"/>
		</linearGradient>
	</defs>
	<path fill="url(#gradient_2)" transform="scale(0.666667 0.666667)" d="M334.603 492.974C332.493 493.273 330.864 493.372 328.741 492.984C333.271 491.02 338.485 490.238 343.177 488.39C357.206 482.864 369.973 473.515 378.535 461.022C380.686 457.883 382.157 454.421 384.22 451.266C391.122 466.201 403.886 477.9 418.526 485.271C422.903 487.475 427.611 489.112 432.328 490.419C433.773 490.819 437.688 491.306 438.75 492.067C438.903 492.176 438.947 492.386 439.045 492.546L438.061 492.802L433.875 492.754C424.563 492.148 413.627 489.348 405.374 484.982C398.243 481.21 390.75 474.886 385.347 468.907C384.909 468.423 384.808 468.348 384.188 468.018L383.144 469.187C372.402 480.02 361.267 486.992 346.334 490.631C342.52 491.561 338.297 491.774 334.603 492.974Z"/>
	<path fill="#B3B2B2" transform="scale(0.666667 0.666667)" d="M468.752 412.765L468.528 408.051C477.915 418.873 479.462 433.885 479.688 447.666C479.78 453.325 479.79 459.017 479.371 464.665C477.508 489.781 469.103 515.994 449.451 532.76C429.161 550.07 403.632 559.558 382.343 575.426C375.109 569.217 367.012 563.397 358.876 558.429C343.785 549.213 327.852 541.353 314.991 528.919C308.771 522.905 303.877 516.101 299.779 508.495C292.181 494.391 288.842 479.87 287.652 463.953C286.594 449.784 286.701 435.464 291.438 421.946C292.956 417.612 294.714 413.566 297.491 409.874L297.404 422.385C296.97 421.381 296.932 420.273 296.812 419.196L295.688 419.367C294.204 427.33 293.441 435.543 293.683 443.644C294.245 462.48 299.725 480.137 307.463 497.168C311.146 505.276 315.366 513.433 321.041 520.342C326.937 527.519 334.406 533.241 341.156 539.557L352.39 550.943L344.802 527.016C348.502 530.697 353.247 533.586 357.225 537.041C363.716 542.678 369.049 549.258 374.033 556.227C376.942 560.295 380.371 565.33 381.36 570.276C381.487 570.912 381.61 571.455 381.858 572.062L382.323 572.062C383.105 566.701 386.679 562.449 389.942 558.349C394.173 553.032 398.613 547.98 403.956 543.743L392.248 562.443L402.499 554.775L420.915 543.019C430.571 536.601 440.509 529.24 448.181 520.504C457.175 510.264 463.227 498.14 467.664 485.34C474.292 466.222 474.614 444.969 472.565 425.041C472.167 421.175 472.186 416.428 470.479 412.929C469.587 412.352 469.751 412.394 468.752 412.765Z"/>
</svg>
